<svg xmlns="http://www.w3.org/2000/svg" xml:space="preserve" viewBox="0 0 201 201">
  <path fill="#562D21" fill-rule="evenodd" d="M198.3 77.3c-.1-.3-.2-.6-.2-.9-2.1.4-4.2.7-6.3.5-2.8-.2-5.2-.9-7.3-2.2-1-.6-1.9-1.2-2.7-2-.5-.5-1-1-1.4-1.5-.5-.6-1-1.3-1.4-2-2-3.4-2.1-3.6-5.4-1.2-.3.2-.5.4-.8.6-2.1 1.6-4.2 2.6-6.4 3.2-1.7.4-3.5.5-5.2.4-2-.1-3.9-.6-5.9-1.4-2.8-1-5-2.5-6.7-4.4-2-2.2-3.2-5-3.7-8.2-.1-.5-.2-1-.2-1.5 0-.4-.1-.8-.1-1.1-.1-1.6-.2-2.8-2.1-2.8h-.6c-4 .2-7.6-.4-10.5-2-1.8-1-3.5-2.3-4.8-4-.7-.9-1.4-1.9-2-3-.9-1.7-1.5-3.4-1.7-5.1.1 0 .2-.1.2-.1-.1 0-.2-.1-.3-.1-.2-1.2-.2-2.4-.1-3.6h1.9l-1.8-.6c.3-2.4 1.2-4.8 2.6-7.1.9-1.4 1-2.5-1-3.2-.3-.1-.7-.3-1-.4-3.6-1.6-6.4-3.8-8.2-6.8-.6-.9-1-2-1.4-3.1-.4-1.4-.7-2.9-.8-4.5-.1-2.2 0-4.4.1-6.6 0-.7 0-1.3-.3-1.8-11.5-1.4-23.5-.9-35.5 2-21.4 5-39.6 16.6-52.9 32.1-5.7 6.6-10.6 14-14.4 21.8-2.5 5.1-4.5 10.5-6.1 16-.1.2-.1.4-.2.5-.1.4-.2.8-.3 1.1-.3 1.1-.6 2.2-.8 3.3C1.6 81.7.9 85.8.5 90c-.1.7-.1 1.4-.2 2 0 .6-.1 1.1-.1 1.7-.1 1-.1 2-.2 3v3.7c0 2.6.1 5.2.3 7.8.1.7.1 1.4.2 2.2v.1c0 .5.1 1 .2 1.5.1 1 .2 2 .4 2.9.3 2 .7 4.1 1.1 6.1.2.9.4 1.8.6 2.6 1.7 7.3 4.2 14.2 7.4 20.7l.9 1.8c.4.9.9 1.7 1.4 2.6 1.3 2.4 2.7 4.7 4.2 7 .3.5.6.9.9 1.4.3.5.6.9.9 1.3.3.5.6.9 1 1.3 1.5 2 3 4 4.6 5.9.1.1.2.2.2.3.1.1.1.2.2.2 2.3 2.7 4.8 5.2 7.4 7.7 2.7 2.5 5.5 4.9 8.5 7.1 3.2 2.4 6.5 4.5 9.9 6.5 11.8 6.8 25.1 11.3 38.9 12.9h.1c3.6.4 7.2.6 10.9.6h.8c3.6 0 7.3-.2 10.9-.7h.1c3.9-.5 7.8-1.1 11.7-2.1 9.8-2.3 18.9-6 27.1-10.8 3.4-2 6.7-4.2 9.9-6.5h.1c3-2.2 5.8-4.6 8.5-7.2 2.6-2.4 5-4.9 7.3-7.6 5.7-6.6 10.5-14 14.3-21.8 3.6-7.4 6.3-15.2 8-23.3 2.9-13.8 2.9-28.7-.6-43.6z" clip-rule="evenodd"/>
  <path fill="#80563E" d="m73.1 114-2.2 7.1h4.4l-2.2-7.1zm54.9.1-2.2 7h4.3l-2.1-7zm-54.9-.1-2.2 7.1h4.4l-2.2-7.1zm54.9.1-2.2 7h4.3l-2.1-7zm-54.9-.1-2.2 7.1h4.4l-2.2-7.1zm54.9.1-2.2 7h4.3l-2.1-7zm-54.9-.1-2.2 7.1h4.4l-2.2-7.1zm54.9.1-2.2 7h4.3l-2.1-7zm-54.9-.1-2.2 7.1h4.4l-2.2-7.1zm54.9.1-2.2 7h4.3l-2.1-7zm-54.9-.1-2.2 7.1h4.4l-2.2-7.1zm54.9.1-2.2 7h4.3l-2.1-7zm-54.9-.1-2.2 7.1h4.4l-2.2-7.1zm54.9.1-2.2 7h4.3l-2.1-7zm-54.9-.1-2.2 7.1h4.4l-2.2-7.1zm54.9.1-2.2 7h4.3l-2.1-7zm-54.9-.1-2.2 7.1h4.4l-2.2-7.1zm54.9.1-2.2 7h4.3l-2.1-7zm-54.9-.1-2.2 7.1h4.4l-2.2-7.1zm54.9.1-2.2 7h4.3l-2.1-7zM10.1 144.4l.9 1.8c.4.9.9 1.7 1.4 2.6 1.3 2.4 2.7 4.7 4.2 7 .3.5.6.9.9 1.4.3.5.6.9.9 1.3.3.5.6.9 1 1.3 1.5 2 3 4 4.6 5.9.1.1.2.2.2.3.1.1.1.2.2.2h152.3c5.6-6.6 10.5-13.9 14.3-21.8H10.1zM128 114.1l-2.2 7h4.3l-2.1-7zm-54.9-.1-2.2 7.1h4.4l-2.2-7.1zm54.9.1-2.2 7h4.3l-2.1-7zm-54.9-.1-2.2 7.1h4.4l-2.2-7.1zm54.9.1-2.2 7h4.3l-2.1-7zm-54.9-.1-2.2 7.1h4.4l-2.2-7.1zm54.9.1-2.2 7h4.3l-2.1-7zm-54.9-.1-2.2 7.1h4.4l-2.2-7.1zm54.9.1-2.2 7h4.3l-2.1-7zm-54.9-.1-2.2 7.1h4.4l-2.2-7.1zm54.9.1-2.2 7h4.3l-2.1-7zm-54.9-.1-2.2 7.1h4.4l-2.2-7.1zm54.9.1-2.2 7h4.3l-2.1-7zm-54.9-.1-2.2 7.1h4.4l-2.2-7.1zm54.9.1-2.2 7h4.3l-2.1-7zm-54.9-.1-2.2 7.1h4.4l-2.2-7.1zm54.9.1-2.2 7h4.3l-2.1-7zm-54.9-.1-2.2 7.1h4.4l-2.2-7.1zm54.9.1-2.2 7h4.3l-2.1-7zm-54.9-.1-2.2 7.1h4.4l-2.2-7.1zm54.9.1-2.2 7h4.3l-2.1-7zm-54.9-.1-2.2 7.1h4.4l-2.2-7.1zm21.4 30.4 6.1 19.6 6.1-19.6H94.5zm0 0 6.1 19.6 6.1-19.6H94.5zm0 0 6.1 19.6 6.1-19.6H94.5zm0 0 6.1 19.6 6.1-19.6H94.5zm0 0 6.1 19.6 6.1-19.6H94.5zm0 0 6.1 19.6 6.1-19.6H94.5zm0 0 6.1 19.6 6.1-19.6H94.5zm0 0 6.1 19.6 6.1-19.6H94.5zm0 0 6.1 19.6 6.1-19.6H94.5zm0 0 6.1 19.6 6.1-19.6H94.5zm103.6-68.1c-.3-1.2-.6-2.4-.9-3.5v-.1h-.1c.3 1.2.6 2.4 1 3.6-2.2.5-4.3.7-6.4.6-2.8-.2-5.2-.9-7.3-2.2-1-.6-1.9-1.2-2.7-2H3.9c-.1.2-.1.4-.2.5-.1.4-.2.8-.3 1.1-.3 1.1-.6 2.2-.8 3.3C1.7 81.8 1 85.9.5 90.1c-.1.7-.1 1.4-.2 2 0 .6-.1 1.1-.1 1.7-.1 1-.1 2-.2 3v3.7c0 2.6.1 5.2.3 7.8.1.7.1 1.4.2 2.2v.1c0 .5.1 1 .2 1.5.1 1 .2 2 .4 2.9.3 2.1.6 4.1 1.1 6.1H199c1.4-6.6 2.1-13.5 2.1-20.5 0-8.4-1.1-16.5-3-24.3zM94.5 144.4l6.1 19.6 6.1-19.6H94.5zm0 0 6.1 19.6 6.1-19.6H94.5zm0 0 6.1 19.6 6.1-19.6H94.5zm0 0 6.1 19.6 6.1-19.6H94.5zm0 0 6.1 19.6 6.1-19.6H94.5zm0 0 6.1 19.6 6.1-19.6H94.5zm0 0 6.1 19.6 6.1-19.6H94.5zm0 0 6.1 19.6 6.1-19.6H94.5zm0 0 6.1 19.6 6.1-19.6H94.5zm0 0 6.1 19.6 6.1-19.6H94.5zm0 0 6.1 19.6 6.1-19.6H94.5zm50-88.8c-.1-1.6-.2-2.8-2.1-2.8h-.6c-4 .2-7.6-.4-10.5-2-1.8-1-3.5-2.3-4.8-4-.7-.9-1.4-1.9-2-3-.9-1.7-1.5-3.4-1.7-5.1.1 0 .2-.1.2-.1-.1 0-.2-.1-.3-.1-.2-1.2-.2-2.4-.1-3.6H24.3C18.7 41.5 13.8 48.8 10 56.7h134.6c-.1-.4-.1-.7-.1-1.1z"/>
  <path fill="#3E2217" d="M184.4 74.7c-1-.6-1.9-1.2-2.7-2-.5-.5-1-1-1.4-1.5-.5-.6-1-1.3-1.4-2-2-3.4-2.1-3.6-5.4-1.2-.3.2-.5.4-.8.6-2.1 1.6-4.2 2.6-6.4 3.2-1.7.4-3.5.5-5.2.4-2-.1-3.9-.6-5.9-1.4-2.8-1-5-2.5-6.7-4.4-2-2.2-3.2-5-3.7-8.2-.1-.5-.2-1-.2-1.5 0-.4-.1-.8-.1-1.1-.1-1.6-.2-2.8-2.1-2.8h-.6c-4 .2-7.6-.4-10.5-2-1.8-1-3.5-2.3-4.8-4-.7-.9-1.4-1.9-2-3-.9-1.7-1.5-3.4-1.7-5.1.1 0 .2-.1.2-.1-.1 0-.2-.1-.3-.1-.2-1.2-.2-2.4-.1-3.6h1.9l-1.8-.6c.3-2.4 1.2-4.8 2.6-7.1.9-1.4 1-2.5-1-3.2-.3-.1-.7-.3-1-.4-3.6-1.6-6.4-3.8-8.2-6.8-.6-.9-1-2-1.4-3.1-4.3-.7-8.7-1-13.2-1-22.3 0-42.7 8.4-58.2 22.2-7 6.2-13.1 13.6-17.8 21.8-2.9 5-5.4 10.4-7.2 16-2.9 8.7-4.5 18.1-4.5 27.8 0 7.1.8 14 2.5 20.6 2 8.3 5.2 16.1 9.4 23.3 3.3 5.6 7.2 10.9 11.6 15.6 2 2.2 4.1 4.2 6.3 6.1.7.6 1.3 1.1 2 1.7 3.1 2.6 6.3 4.9 9.7 7.1 9.3 5.8 19.7 9.9 30.8 11.9 2.7.5 5.4.8 8.1 1.1 1 .1 2 .2 3.1.2 1.4.1 2.9.1 4.3.1 1.5 0 3 0 4.4-.1 1 0 2-.1 3.1-.2 2.8-.2 5.5-.6 8.1-1.1 11.1-2 21.5-6.1 30.8-11.9 3.4-2.1 6.6-4.5 9.7-7h.1c.6-.5 1.3-1.1 1.9-1.6 2.2-2 4.3-4 6.4-6.2 4.4-4.7 8.2-10 11.5-15.6 4.2-7.2 7.4-15 9.4-23.3 1.6-6.6 2.5-13.5 2.5-20.6-.2-9.1-1.5-17.7-4.1-25.9z"/>
  <path fill="#562D21" fill-rule="evenodd" d="M180.9 72.7c-.2-.5-.4-1-.5-1.5-.5-.6-1-1.3-1.4-2-2-3.4-2.1-3.6-5.4-1.2-.3.2-.5.4-.8.6-2.1 1.6-4.2 2.6-6.4 3.2-1.7.4-3.5.5-5.2.4-2-.1-3.9-.6-5.9-1.4-2.8-1-5-2.5-6.7-4.4-2-2.2-3.2-5-3.7-8.2-.1-.5-.2-1-.2-1.5 0-.4-.1-.8-.1-1.1-.1-1.6-.2-2.8-2.1-2.8h-.6c-4 .2-7.6-.4-10.5-2-1.8-1-3.5-2.3-4.8-4-.7-.9-1.4-1.9-2-3-.9-1.7-1.5-3.4-1.7-5.1.1 0 .2-.1.2-.1-.1 0-.2-.1-.3-.1-.2-1.2-.2-2.4-.1-3.6h1.9l-1.8-.6c.3-2.4 1.2-4.8 2.6-7.1.9-1.4 1-2.5-1-3.2-.3-.1-.7-.3-1-.4-3.6-1.6-6.4-3.8-8.2-6.8-4.8-.8-9.7-1.3-14.6-1.3-20.5 0-39.3 7.3-54 19.4-7.6 6.2-13.9 13.5-19 21.8-3 5-5.6 10.4-7.5 16-3 8.7-4.7 18.1-4.7 27.9 0 7.1.9 13.9 2.5 20.5 2.1 8.3 5.4 16.2 9.7 23.3 2.7 4.5 5.9 8.8 9.4 12.7 2.5 2.9 5.3 5.5 8.2 8 .4.3.8.7 1.2 1 2.7 2.2 5.5 4.3 8.5 6.2 8.8 5.6 18.6 9.6 29.2 11.7 3.2.6 6.5 1.1 9.8 1.3.5 0 1 .1 1.5.1 1.7.1 3.4.2 5.1.2 1.8 0 3.5 0 5.2-.2.5 0 1-.1 1.4-.1 3.3-.2 6.6-.7 9.8-1.3 10.5-2.1 20.4-6.1 29.1-11.7 3-1.9 5.8-4 8.5-6.2.4-.3.8-.7 1.2-1 2.9-2.5 5.7-5.2 8.2-8.1 3.5-3.9 6.6-8.2 9.3-12.7 4.3-7.2 7.6-15 9.7-23.3 1.6-6.6 2.5-13.4 2.5-20.5.2-9.7-1.5-19-4.5-27.8z" clip-rule="evenodd"/>
  <g fill="#80563E">
    <path d="M31.7 52.8c1.1 3 3.8 5.3 7.2 5.9 3.4.6 6.7-.8 8.7-3.3-1.1-3-3.8-5.3-7.2-5.9-3.4-.6-6.7.8-8.7 3.3z"/>
    <path d="M122.6 34.9c-.1 1.2-.1 2.4.1 3.6-3.2-1.2-6.5-2.3-9.9-3-.8-.2-1.6-.4-2.4-.5-1.2-.2-2.5-.5-3.8-.6-3.5-.5-7.1-.7-10.6-.7-1.8 0-3.6.1-5.4.3-2.4.2-4.7.6-7.1 1.1-1.9.4-3.9.9-5.8 1.5-1.4.4-2.8.9-4.2 1.5-4.1 1.6-8 3.6-11.8 6-1.2.8-2.4 1.6-3.6 2.5-1.8 1.4-3.6 2.9-5.3 4.5-1.9 1.8-3.7 3.7-5.4 5.8v.1c-.9 1-1.7 2.1-2.6 3.3-.5.7-1.1 1.5-1.6 2.2l-1-.8c.7-1.1 1.4-2.2 2.2-3.2.1-.2.3-.4.4-.6.3-.3.5-.7.8-1 .5-.7 1.1-1.4 1.7-2.1.3-.3.5-.7.8-1 .9-1.1 1.9-2.2 2.9-3.2 1.9-2 4-3.8 6.1-5.5 1.6-1.3 3.3-2.5 5.1-3.7 2.8-1.8 5.7-3.4 8.7-4.8l3.6-1.5c.6-.2 1.3-.5 1.9-.7 4-1.4 8.2-2.4 12.5-3.1 2-.3 4-.5 6-.6 3.7-.2 7.4-.2 11.1.2 2.1.2 4.2.5 6.3.9 3.4.6 6.8 1.5 10.2 2.6h.1l1.8.6h-1.8zM166.8 72.7l-4.1 2.6c-.4-.9-.9-1.7-1.3-2.6-.1-.2-.2-.4-.3-.5 1.8.1 3.5 0 5.2-.4.2.3.3.6.5.9z"/>
    <path d="M62.2 41.2c-1-2.9-3.3-5.2-6.4-6.2-.1 0-.2-.1-.4-.1-1.8-.5-3.7-.5-5.4 0-1.5.4-2.9 1.2-4 2.2.7 3.4 3.2 6.3 6.7 7.4 1.5.5 3 .6 4.4.4.8-.1 1.6-.3 2.3-.6.5-.2 1-.5 1.5-.8.5-.3 1.1-.7 1.5-1.1 0-.4-.1-.8-.2-1.2zM60 57.9l-.6-1.2C57.9 54 55.6 52 52.8 51c-.6-.2-1.2-.4-1.8-.5-.3-.1-.7-.2-1-.2-.8 1-1.5 2.2-1.9 3.4-.2.6-.4 1.2-.5 1.8-.1.4-.2.8-.2 1.3v.1c-.2 2 .1 4 .9 5.9 1.8 4.3 5.7 7.1 10 7.7C61 67 61.8 62.2 60 57.9zm0 0-.6-1.2h-12v.1c-.2 2 .1 4 .9 5.9 1.8 4.3 5.7 7.1 10 7.7C61 67 61.8 62.2 60 57.9zm0 0-.6-1.2h-12v.1c-.2 2 .1 4 .9 5.9 1.8 4.3 5.7 7.1 10 7.7C61 67 61.8 62.2 60 57.9zm0 0-.6-1.2h-12v.1c-.2 2 .1 4 .9 5.9 1.8 4.3 5.7 7.1 10 7.7C61 67 61.8 62.2 60 57.9zm0 0-.6-1.2h-12v.1c-.2 2 .1 4 .9 5.9 1.8 4.3 5.7 7.1 10 7.7C61 67 61.8 62.2 60 57.9zm0 0-.6-1.2h-12v.1c-.2 2 .1 4 .9 5.9 1.8 4.3 5.7 7.1 10 7.7C61 67 61.8 62.2 60 57.9zm0 0-.6-1.2h-12v.1c-.2 2 .1 4 .9 5.9 1.8 4.3 5.7 7.1 10 7.7C61 67 61.8 62.2 60 57.9zm0 0-.6-1.2h-12v.1c-.2 2 .1 4 .9 5.9 1.8 4.3 5.7 7.1 10 7.7C61 67 61.8 62.2 60 57.9zm-15.2 2.2c-.1-.6-.2-1.2-.4-1.7 0-.1-.1-.2-.1-.3-.1-.2-.1-.3-.2-.5-2.2-.3-4.5 0-6.6.8-1.9.8-3.7 2.1-5.1 3.9-2.4 3.1-3.2 7-2.4 10.5.1.7.3 1.3.6 2 3 .4 6.2-.2 8.8-2 1.1-.7 2.1-1.6 2.9-2.7 2.3-3 3.1-6.6 2.5-10zM60 57.9l-.6-1.2h-12v.1c-.2 2 .1 4 .9 5.9 1.8 4.3 5.7 7.1 10 7.7C61 67 61.8 62.2 60 57.9zm0 0-.6-1.2h-12v.1c-.2 2 .1 4 .9 5.9 1.8 4.3 5.7 7.1 10 7.7C61 67 61.8 62.2 60 57.9zm0 0-.6-1.2h-12v.1c-.2 2 .1 4 .9 5.9 1.8 4.3 5.7 7.1 10 7.7C61 67 61.8 62.2 60 57.9zm0 0-.6-1.2h-12v.1c-.2 2 .1 4 .9 5.9 1.8 4.3 5.7 7.1 10 7.7C61 67 61.8 62.2 60 57.9zm0 0-.6-1.2h-12v.1c-.2 2 .1 4 .9 5.9 1.8 4.3 5.7 7.1 10 7.7C61 67 61.8 62.2 60 57.9zm0 0-.6-1.2h-12v.1c-.2 2 .1 4 .9 5.9 1.8 4.3 5.7 7.1 10 7.7C61 67 61.8 62.2 60 57.9zm0 0-.6-1.2h-12v.1c-.2 2 .1 4 .9 5.9 1.8 4.3 5.7 7.1 10 7.7C61 67 61.8 62.2 60 57.9z"/>
    <path d="M76.4 34.2c-.2-2.8-1.7-5.4-4.2-7-2.9-1.9-6.5-2-9.3-.5-.2 3.1 1.2 6.3 4.1 8.2l.1.1c1.2.8 2.5 1.2 3.8 1.4 1.6.2 3.3 0 4.9-.6l.6-.3V34.2zM66.7 50c-.7-2.8-2.5-5-4.9-6.1-.3-.1-.5-.2-.8-.3-.2-.1-.4-.2-.7-.2-.3.3-.6.6-.9 1-.5.6-.9 1.4-1.2 2.1-.8 1.8-1 3.8-.5 5.8.4 1.8 1.4 3.3 2.6 4.5 1.1 1 2.4 1.8 3.8 2.2.7-.6 1.2-1.4 1.7-2.2 1.1-2.1 1.5-4.4.9-6.8z"/>
    <path d="M111.8 23.4c-1.8-3-4.9-4.7-8.1-4.7-1.6 2.8-1.7 6.3 0 9.3.6 1.1 1.4 2 2.3 2.7 1.4 1.1 3.1 1.8 4.9 1.9h.8c.2-.4.4-.7.5-1.1 1.2-2.5 1.1-5.5-.4-8.1zM96.6 34.9c-.2-.5-.4-.9-.6-1.3-.4-.7-.8-1.3-1.4-1.9-1.5.4-2.8 1.1-4 2.1-.4.3-.7.7-1 1.1-.8.9-1.4 2.1-1.7 3.3-1 3.3 0 6.7 2.2 9 3.1-.8 5.8-3.1 6.7-6.5.6-2 .5-4-.2-5.8zm-4-12.3c-2.4-2.5-5.8-3.5-8.9-2.8-1 3.1-.3 6.6 2 9.1.9 1 2 1.7 3.1 2.2 1.8.8 3.8 1 5.8.6l.3-1.2c.5-2.7-.3-5.7-2.3-7.9zM77.7 36.4c-.4-.4-.9-.7-1.3-1-.2.1-.4.2-.6.4-.9.5-1.6 1.2-2.2 2-1.2 1.5-1.9 3.5-1.9 5.6-.1 3.4 1.7 6.5 4.5 8.2 2.8-1.5 4.8-4.5 4.8-8 0-2.8-1.2-5.4-3.3-7.2z"/>
    <path d="M124.3 23.9c-.3-.1-.7-.3-1-.4-1.8 2.2-2.6 5.2-1.8 8.3.2.9.6 1.7 1 2.4 0 .1.1.1.1.2.1.2.2.3.3.5h1.5l-1.8-.6c.3-2.4 1.2-4.8 2.6-7.1.9-1.4 1.1-2.5-.9-3.3zm-11.5 11.5c0-.2-.1-.3-.1-.5-.2-.8-.5-1.5-.9-2.2v-.1c-.2 0-.5 0-.8.1-1.5.2-3 .7-4.3 1.6-.3.2-.5.4-.8.6-.8.7-1.5 1.6-2 2.6-1.7 3.1-1.5 6.6.2 9.3 3.2-.1 6.3-1.8 7.9-4.9 1-2 1.2-4.3.8-6.5zM124.4 43.8c-.9-1.7-1.5-3.4-1.7-5.1-1.3.5-2.6 1.3-3.6 2.3-2.4 2.5-3.1 6-2.2 9 3.1.8 6.6-.1 8.9-2.6.2-.2.4-.5.6-.7-.7-.9-1.4-1.8-2-2.9zM144.8 58.2c-2.1 1.3-3.6 3.3-4.2 5.6 2 2 5 3.1 7.9 2.6-2-2.2-3.2-4.9-3.7-8.2zm-3-5.5c-4 .2-7.6-.4-10.5-2-.8 1.4-1.3 2.9-1.3 4.5 2.7 1.7 6.3 1.9 9.3.3 1.3-.7 2.4-1.7 3.2-2.8h-.7z"/>
  </g>
  <path fill="#FFF" d="M122.9 38.6c-.1 0-.2 0-.2.1v-.2s.1.1.2.1zM124.5 34.9h-1.9c0-.2 0-.3.1-.5v-.1l1.8.6zM198.1 76.3c-.4-1.2-.7-2.4-1.1-3.6h.1v.1c.4 1.2.7 2.4 1 3.5z"/>
  <text fill="#80563E" font-family="'GaramondHalbfett'" font-size="80.868" transform="translate(23.13 130.012)">2023</text>
</svg>
