<?xml version="1.0" encoding="utf-8"?>
<!-- Generator: Adobe Illustrator 28.0.0, SVG Export Plug-In . SVG Version: 6.00 Build 0)  -->
<svg version="1.1" id="Layer_1" xmlns="http://www.w3.org/2000/svg" xmlns:xlink="http://www.w3.org/1999/xlink" x="0px" y="0px"
	 viewBox="0 0 201 201" enable-background="new 0 0 201 201" xml:space="preserve">
<circle fill="#FFE780" cx="100.5" cy="100.5" r="100.5"/>
<path fill-rule="evenodd" clip-rule="evenodd" fill="#FFF07F" d="M176.7,34.9c5.7,6.6,10.5,13.9,14.3,21.8H10
	c3.8-7.9,8.7-15.2,14.3-21.8H176.7z M197.2,72.8c2.5,8.8,3.9,18.1,3.9,27.8c0,7-0.7,13.9-2.1,20.5H2.1C0.7,114.4,0,107.6,0,100.5
	c0-9.6,1.4-18.9,3.9-27.8h193.3C197.2,72.7,197.2,72.8,197.2,72.8z M191,144.4c-3.8,7.9-8.7,15.2-14.3,21.8H24.4
	c-5.7-6.6-10.5-13.9-14.3-21.8H191z"/>
<circle fill-rule="evenodd" clip-rule="evenodd" fill="#FAB700" cx="100.5" cy="100.5" r="87.8"/>
<circle fill-rule="evenodd" clip-rule="evenodd" fill="#FFBB00" cx="100.5" cy="100.5" r="85.1"/>
<path fill="#FFE780" d="M33.3,51.4c1.1,3,3.8,5.3,7.2,5.9c3.4,0.6,6.7-0.8,8.7-3.3c-1.1-3-3.8-5.3-7.2-5.9
	C38.6,47.6,35.3,48.9,33.3,51.4z"/>
<path fill="#FFE780" d="M44.8,60.9c31.1-45.6,96.7-33.7,119.5,13l4.1-2.6C143.8,22,74.5,12.6,43.8,60.1
	C43.8,60.1,44.8,60.9,44.8,60.9z"/>
<path fill="#FFE780" d="M32.2,73.3c4.3,0.6,8.8-1,11.7-4.7s3.4-8.4,1.8-12.5c-4.3-0.6-8.8,1-11.7,4.7C31.1,64.5,30.6,69.3,32.2,73.3
	z M59.9,69c2.7-3.4,3.5-8.2,1.7-12.5s-5.7-7.1-10-7.7c-2.7,3.4-3.5,8.2-1.7,12.5S55.6,68.4,59.9,69z M47.6,35.7
	c0.7,3.4,3.2,6.3,6.7,7.4c3.5,1.1,7.2,0.2,9.8-2.1c-0.7-3.4-3.2-6.3-6.7-7.4C53.9,32.5,50.2,33.4,47.6,35.7z"/>
<path fill="#FFE780" d="M65.7,57.5c2.3-2.2,3.4-5.6,2.6-8.9c-0.8-3.4-3.3-5.8-6.4-6.7c-2.4,2.3-3.4,5.7-2.6,8.9
	C60.1,54.1,62.6,56.6,65.7,57.5z M64.5,25.3c-0.2,3.2,1.3,6.4,4.2,8.3c2.9,1.9,6.4,1.9,9.3,0.5c0.2-3.2-1.3-6.4-4.2-8.3
	C70.9,23.9,67.3,23.8,64.5,25.3z"/>
<path fill="#FFE780" d="M77.6,50.2c2.8-1.5,4.8-4.5,4.8-8c0.1-3.4-1.7-6.5-4.5-8.2c-2.8,1.5-4.8,4.5-4.8,8S74.9,48.5,77.6,50.2z
	 M85.3,18.4c-1,3.1-0.3,6.6,2,9.1s5.7,3.5,8.9,2.8c1-3.1,0.3-6.6-2-9.1C91.8,18.7,88.4,17.7,85.3,18.4z"/>
<path fill="#FFE780" d="M91.7,45.8c3.1-0.8,5.8-3.1,6.7-6.5c1-3.3,0-6.7-2.2-9c-3.1,0.8-5.8,3.2-6.7,6.5
	C88.5,40.1,89.4,43.5,91.7,45.8z M105.3,17.3c-1.6,2.8-1.7,6.3,0,9.3s4.8,4.7,8.1,4.7c1.6-2.8,1.7-6.3,0-9.3
	C111.6,19,108.5,17.3,105.3,17.3z M105.6,45.5c3.2-0.1,6.3-1.8,7.9-4.9c1.6-3,1.4-6.6-0.2-9.3c-3.2,0.1-6.3,1.8-7.9,4.9
	C103.7,39.2,103.9,42.7,105.6,45.5z M125.5,21.4c-2.3,2.3-3.3,5.6-2.5,9c0.9,3.3,3.4,5.8,6.5,6.6c2.3-2.3,3.3-5.6,2.5-9
	C131.2,24.7,128.6,22.3,125.5,21.4z M118.4,48.7c3.1,0.8,6.6-0.1,8.9-2.6c2.4-2.5,3.1-6,2.2-9c-3.1-0.8-6.6,0.1-8.9,2.6
	C118.3,42.1,117.5,45.6,118.4,48.7z M146.7,30.2c-2.9,1.4-4.9,4.3-5.2,7.8c-0.2,3.4,1.5,6.6,4.1,8.3c2.9-1.4,4.9-4.3,5.2-7.8
	C151.1,35.1,149.4,32,146.7,30.2z"/>
<path fill="#FFE780" d="M131.4,53.8c2.7,1.7,6.3,1.9,9.3,0.3c3-1.6,4.8-4.7,4.9-7.9c-2.7-1.7-6.3-1.9-9.3-0.3
	C133.3,47.6,131.6,50.6,131.4,53.8z M162.3,42.7c-3.1,0.8-5.8,3.1-6.7,6.4c-1,3.3,0,6.7,2.2,9.1c3.1-0.8,5.8-3.1,6.7-6.4
	C165.5,48.5,164.5,45,162.3,42.7z M142.2,62.4c2.3,2.3,5.7,3.3,9,2.4c3.3-0.9,5.7-3.5,6.6-6.6c-2.4-2.4-5.8-3.3-9-2.4
	C145.4,56.7,143,59.3,142.2,62.4z"/>
<text transform="matrix(1 0 0 1 24.7311 128.5901)" fill="#FFE780" font-family="'GaramondHalbfett'" font-size="80.868px">2023</text>
</svg>
