<svg xmlns="http://www.w3.org/2000/svg" xml:space="preserve" fill-rule="evenodd" stroke-linejoin="round" stroke-miterlimit="2" clip-rule="evenodd" viewBox="0 0 210 210">
  <path fill="#787878" d="M38.455 38.456c58.65-58.65 102.908-39.221 142.129 0 39.221 39.22 39.221 102.907 0 142.128-39.221 39.221-102.907 39.221-142.129 0-39.22-39.22-58.648-83.48 0-142.128Z"/>
  <path fill="#9c9c9c" d="M68.286 195.717a99.881 99.881 0 0 0 22.088 4.778l8.994 8.995a100.696 100.696 0 0 1-22.079-4.77l-9.003-9.003Zm44.368 14.234-9-9c5.316-.164 10.529-.742 15.607-1.702l9 9a101.165 101.165 0 0 1-15.607 1.702Zm25.917-4.217-9.008-9.008a99.972 99.972 0 0 0 12.569-4.74l9.023 9.023a99.868 99.868 0 0 1-12.584 4.725Zm21.057-9.075-9.033-9.033a100.63 100.63 0 0 0 10.413-6.899l9.036 9.036a99.977 99.977 0 0 1-10.416 6.896Zm17.425-12.71-9.035-9.034a101.21 101.21 0 0 0 8.55-8.762l9.035 9.035a101.447 101.447 0 0 1-8.55 8.762Zm14.202-15.931-9.036-9.036a100.574 100.574 0 0 0 6.669-10.642l9.03 9.03a99.703 99.703 0 0 1-6.663 10.648Zm10.826-19.309-9.02-9.02a99.802 99.802 0 0 0 4.449-12.86l9.005 9.005a100.123 100.123 0 0 1-4.434 12.875Zm6.687-23.446-9-9A101.1 101.1 0 0 0 201 100.5v-.316l9 9a101.193 101.193 0 0 1-1.232 16.079Zm.237-29.896-8.992-8.993a99.747 99.747 0 0 0-6.383-23.694l9.017 9.018a100.42 100.42 0 0 1 6.358 23.669Z"/>
  <circle cx="100.5" cy="100.5" r="100.5" fill="#a09ea5"/>
  <path fill="#bcbac2" fill-rule="nonzero" d="M133.673 5.62a98.869 98.869 0 0 1 23.284 11.73L.207 107.85C-.454 99.108.14 90.336 1.69 81.82l131.982-76.2Zm36.703 22.573c6.565 6.37 12.428 13.725 17.278 22.125 3.5 6.062 6.344 12.388 8.431 18.804l-170.52 98.45c-4.563-5.103-8.569-10.642-12.119-16.79-4.8-8.314-8.237-17.068-10.522-26.026l167.402-96.65.05.087Zm30.43 65.107c.66 8.742.066 17.514-1.483 26.03L67.427 195.48a98.869 98.869 0 0 1-23.284-11.73L200.807 93.3Z"/>
  <path fill="#848389" fill-rule="nonzero" d="M100.5 188.3c48.3 0 87.8-39.4 87.8-87.8s-39.4-87.8-87.8-87.8c-48.3 0-87.8 39.4-87.8 87.8s39.5 87.8 87.8 87.8Z"/>
  <path fill="url(#a)" d="M100.5 188.3c48.3 0 87.8-39.4 87.8-87.8s-39.4-87.8-87.8-87.8-87.8 39.4-87.8 87.8 39.5 87.8 87.8 87.8Z"/>
  <path fill="#949396" d="M100.5 185.7c46.9 0 85.1-38.2 85.1-85.1 0-46.9-38.2-85.1-85.1-85.1-46.9 0-85.1 38.2-85.1 85.1 0 46.8 38.2 85.1 85.1 85.1Z"/>
  <circle cx="100.5" cy="100.5" r="85.1" fill="url(#b)"/>
  <path fill="#bcbac2" d="M47.256 54.59c.28-.337.561-.671.845-1.002A12.247 12.247 0 0 1 50 50.2c.346.048.69.111 1.03.187a66.918 66.918 0 0 1 6.074-5.513c-1.44.196-2.939.086-4.404-.374-3.5-1.1-6-4-6.7-7.4 2.6-2.3 6.3-3.2 9.8-2.1a9.86 9.86 0 0 1 6.371 6.198 65.04 65.04 0 0 1 8.697-4.787A9.077 9.077 0 0 1 67.1 35c-2.9-1.9-4.4-5.1-4.2-8.3 2.8-1.5 6.4-1.4 9.3.5 2.505 1.641 3.965 4.252 4.188 6.996a67.508 67.508 0 0 1 12.452-3.057A9.31 9.31 0 0 1 85.7 28.9c-2.3-2.5-3-6-2-9.1 3.1-.7 6.5.3 8.9 2.8a9.264 9.264 0 0 1 2.297 7.916 71.953 71.953 0 0 1 11.138.208A9.247 9.247 0 0 1 103.7 28c-1.7-3-1.6-6.5 0-9.3 3.2 0 6.3 1.7 8.1 4.7a9.354 9.354 0 0 1 .536 8.203 75.477 75.477 0 0 1 10.188 2.618A9.785 9.785 0 0 1 121.5 31.8c-.8-3.4.2-6.7 2.5-9 3.1.8 5.6 3.3 6.5 6.6.632 2.686.141 5.31-1.228 7.427a76.483 76.483 0 0 1 11.079 6.032 9.38 9.38 0 0 1-.451-3.459c.3-3.5 2.3-6.4 5.2-7.8 2.7 1.7 4.4 4.9 4.1 8.3-.239 2.79-1.559 5.199-3.553 6.77a76.004 76.004 0 0 1 8.003 7.275A8.995 8.995 0 0 1 154 50.5c.9-3.3 3.6-5.6 6.7-6.4 2.3 2.3 3.2 5.7 2.2 9.1-.719 2.635-2.585 4.632-4.886 5.738A77.145 77.145 0 0 1 166.8 72.7l-4.1 2.6a74.574 74.574 0 0 0-7.91-12.766c-1.221 1.734-3.009 3.071-5.19 3.666-3.3.9-6.7-.1-9-2.4.8-3.1 3.2-5.7 6.6-6.6a9.111 9.111 0 0 1 2.755-.338 74.507 74.507 0 0 0-6.512-6.124A9.287 9.287 0 0 1 139.2 55.5c-3 1.6-6.6 1.4-9.3-.3.1-3.2 1.9-6.3 4.9-7.9a9.3 9.3 0 0 1 2.809-.96 74.808 74.808 0 0 0-9.232-5.357A9.236 9.236 0 0 1 125.8 47.4c-2.3 2.5-5.8 3.4-8.9 2.6-.9-3-.2-6.5 2.2-9a8.894 8.894 0 0 1 3.793-2.429 73.247 73.247 0 0 0-10.099-3.146c.449 2.122.193 4.437-.894 6.475-1.6 3.1-4.7 4.8-7.9 4.9-1.7-2.7-1.9-6.2-.2-9.3a8.907 8.907 0 0 1 2.825-3.235 69.345 69.345 0 0 0-10.637-.695c1.182 2.089 1.567 4.638.812 7.13-.9 3.4-3.6 5.7-6.7 6.5-2.2-2.3-3.2-5.7-2.2-9a9.061 9.061 0 0 1 2.699-4.348 64.497 64.497 0 0 0-12.868 2.526c2.024 1.779 3.252 4.397 3.169 7.222 0 3.5-2 6.5-4.8 8-2.8-1.7-4.6-4.8-4.5-8.2 0-2.113.729-4.044 1.923-5.572a62.159 62.159 0 0 0-11.759 6.03A9.019 9.019 0 0 1 66.7 50c.8 3.3-.3 6.7-2.6 8.9-3-.9-5.6-3.4-6.4-6.7a9.164 9.164 0 0 1 .459-5.795 64.773 64.773 0 0 0-5.327 4.53A12.719 12.719 0 0 1 60 57.9c1.8 4.3 1 9.1-1.7 12.5-4.3-.6-8.2-3.4-10-7.7a12.437 12.437 0 0 1-.913-5.954 72.106 72.106 0 0 0-2.579 3.288A12.539 12.539 0 0 1 42.3 70c-2.9 3.7-7.4 5.3-11.7 4.7-1.6-4-1.1-8.8 1.8-12.5a12.504 12.504 0 0 1 5.076-3.863c-2.721-.915-4.835-2.97-5.776-5.537 2-2.5 5.3-3.9 8.7-3.3 3.087.545 5.597 2.491 6.856 5.09Zm-2.974 3.406c.036.102.07.205.103.308.137-.19.275-.379.413-.567a8.875 8.875 0 0 1-.516.259Z"/>
  <text x="33.768" y="131.39" fill="#bcbac2" font-family="&quot;Arial-BoldMT&quot;,&quot;Arial&quot;,sans-serif" font-size="60" font-weight="700">2023</text>
  <defs>
    <linearGradient id="a" x1="0" x2="1" y1="0" y2="0" gradientTransform="matrix(0 -175.6 175.6 0 100.507 188.3)" gradientUnits="userSpaceOnUse">
      <stop offset="0" stop-color="#777"/>
      <stop offset="1" stop-color="#959595"/>
    </linearGradient>
    <linearGradient id="b" x1="0" x2="1" y1="0" y2="0" gradientTransform="rotate(90 46.167 58.989) scale(175.966)" gradientUnits="userSpaceOnUse">
      <stop offset="0" stop-color="#a5a5a5"/>
      <stop offset="1" stop-color="#7e7e7e"/>
    </linearGradient>
  </defs>
</svg>
