<svg xmlns="http://www.w3.org/2000/svg" xml:space="preserve" viewBox="0 0 201 201">
  <circle cx="100.5" cy="100.5" r="100.5" fill="#A09EA5" fill-rule="evenodd" clip-rule="evenodd"/>
  <path fill="#BCBAC2" d="M176.7 34.9c5.7 6.6 10.5 13.9 14.3 21.8H10c3.8-7.9 8.7-15.2 14.3-21.8h152.4zm20.5 37.9c2.5 8.8 3.9 18.1 3.9 27.8 0 7-.7 13.9-2.1 20.5H2.1C.7 114.4 0 107.6 0 100.5c0-9.6 1.4-18.9 3.9-27.8h193.3v.1zm-6.2 71.6c-3.8 7.9-8.7 15.2-14.3 21.8H24.4c-5.7-6.6-10.5-13.9-14.3-21.8H191z"/>
  <path fill="#848389" d="M100.5 188.3c48.3 0 87.8-39.4 87.8-87.8s-39.4-87.8-87.8-87.8c-48.3 0-87.8 39.4-87.8 87.8s39.5 87.8 87.8 87.8z"/>
  <path fill="#949396" fill-rule="evenodd" d="M100.5 185.7c46.9 0 85.1-38.2 85.1-85.1s-38.2-85.1-85.1-85.1-85.1 38.2-85.1 85.1c0 46.8 38.2 85.1 85.1 85.1z" clip-rule="evenodd"/>
  <path fill="#BCBAC2" d="M31.7 52.8c1.1 3 3.8 5.3 7.2 5.9 3.4.6 6.7-.8 8.7-3.3-1.1-3-3.8-5.3-7.2-5.9-3.4-.6-6.7.8-8.7 3.3z"/>
  <path fill="#BCBAC2" d="M43.2 62.3c31.1-45.6 96.7-33.7 119.5 13l4.1-2.6C142.2 23.4 72.9 14 42.2 61.5l1 .8z"/>
  <path fill="#BCBAC2" d="M30.6 74.7c4.3.6 8.8-1 11.7-4.7 2.9-3.7 3.4-8.4 1.8-12.5-4.3-.6-8.8 1-11.7 4.7s-3.4 8.5-1.8 12.5zm27.7-4.3C61 67 61.8 62.2 60 57.9s-5.7-7.1-10-7.7c-2.7 3.4-3.5 8.2-1.7 12.5s5.7 7.1 10 7.7zM46 37.1c.7 3.4 3.2 6.3 6.7 7.4 3.5 1.1 7.2.2 9.8-2.1-.7-3.4-3.2-6.3-6.7-7.4-3.5-1.1-7.2-.2-9.8 2.1z"/>
  <path fill="#BCBAC2" d="M64.1 58.9c2.3-2.2 3.4-5.6 2.6-8.9-.8-3.4-3.3-5.8-6.4-6.7-2.4 2.3-3.4 5.7-2.6 8.9.8 3.3 3.4 5.8 6.4 6.7zm-1.2-32.2c-.2 3.2 1.3 6.4 4.2 8.3 2.9 1.9 6.4 1.9 9.3.5.2-3.2-1.3-6.4-4.2-8.3-2.9-1.9-6.5-2-9.3-.5z"/>
  <path fill="#BCBAC2" d="M76.1 51.6c2.8-1.5 4.8-4.5 4.8-8 .1-3.4-1.7-6.5-4.5-8.2-2.8 1.5-4.8 4.5-4.8 8-.1 3.4 1.7 6.5 4.5 8.2zm7.6-31.8c-1 3.1-.3 6.6 2 9.1s5.7 3.5 8.9 2.8c1-3.1.3-6.6-2-9.1-2.4-2.5-5.8-3.5-8.9-2.8zm6.4 27.4c3.1-.8 5.8-3.1 6.7-6.5 1-3.3 0-6.7-2.2-9-3.1.8-5.8 3.2-6.7 6.5-1 3.3 0 6.7 2.2 9zm13.6-28.5c-1.6 2.8-1.7 6.3 0 9.3s4.8 4.7 8.1 4.7c1.6-2.8 1.7-6.3 0-9.3-1.8-3-4.9-4.7-8.1-4.7z"/>
  <path fill="#BCBAC2" d="M104 46.8c3.2-.1 6.3-1.8 7.9-4.9 1.6-3 1.4-6.6-.2-9.3-3.2.1-6.3 1.8-7.9 4.9-1.7 3.1-1.5 6.6.2 9.3zm20-24c-2.3 2.3-3.3 5.6-2.5 9 .9 3.3 3.4 5.8 6.5 6.6 2.3-2.3 3.3-5.6 2.5-9-.9-3.3-3.4-5.8-6.5-6.6z"/>
  <path fill="#BCBAC2" d="M116.9 50c3.1.8 6.6-.1 8.9-2.6 2.4-2.5 3.1-6 2.2-9-3.1-.8-6.6.1-8.9 2.6-2.4 2.5-3.1 6-2.2 9zm28.2-18.4c-2.9 1.4-4.9 4.3-5.2 7.8-.2 3.4 1.5 6.6 4.1 8.3 2.9-1.4 4.9-4.3 5.2-7.8.3-3.4-1.4-6.6-4.1-8.3z"/>
  <path fill="#BCBAC2" d="M129.9 55.2c2.7 1.7 6.3 1.9 9.3.3 3-1.6 4.8-4.7 4.9-7.9-2.7-1.7-6.3-1.9-9.3-.3-3 1.6-4.8 4.7-4.9 7.9zm30.8-11.1c-3.1.8-5.8 3.1-6.7 6.4-1 3.3 0 6.7 2.2 9.1 3.1-.8 5.8-3.1 6.7-6.4 1-3.4.1-6.8-2.2-9.1zm-20.1 19.7c2.3 2.3 5.7 3.3 9 2.4s5.7-3.5 6.6-6.6c-2.4-2.4-5.8-3.3-9-2.4-3.4.9-5.8 3.5-6.6 6.6z"/>
  <text fill="#BCBAC2" font-family="'GaramondHalbfett'" font-size="80.868" transform="translate(23.16 130.013)">2023</text>
</svg>
