<svg xmlns="http://www.w3.org/2000/svg" data-name="Layer 1" viewBox="0 0 128 128">
  <defs>
    <linearGradient id="a" x1="28.8" x2="28.8" y1="717.7" y2="753" gradientTransform="translate(0 -663.9)" gradientUnits="userSpaceOnUse">
      <stop offset=".2" stop-color="#1e88e5"/>
      <stop offset="1" stop-color="#1565c0"/>
    </linearGradient>
  </defs>
  <path fill="#b9e4ea" d="M4 93.3V34.6c0-4.7 3.8-8.5 8.5-8.5h103c4.7 0 8.5 3.8 8.5 8.5v58.7c0 4.7-3.8 8.5-8.5 8.5h-103C7.8 101.8 4 98 4 93.3Z"/>
  <path fill="#fff" d="M42.4 89.1H15.2c-.9 0-1.5-.7-1.5-1.5v-37c0-.8.7-1.5 1.5-1.5h27.2c.8 0 1.5.7 1.5 1.5v37c0 .8-.7 1.5-1.5 1.5Z"/>
  <path fill="url(#a)" d="M43.9 87.9v1.2H13.8v-1.2c0-4.6 5.9-6.9 12.4-7.3v-.3c-2.7-.8-5.2-2.9-6.4-6.3-1.2-.4-2-4.5-1.6-5-.2-1.7-1.9-15.1 10.7-15.2 12.5 0 10.9 13.4 10.7 15.2.3.5-.4 4.6-1.6 5-1.2 3.4-3.6 5.5-6.4 6.3v.3c6.5.5 12.4 3 12.4 7.4Z"/>
  <path fill="#2f7889" d="M115.5 26.2h-103C7.8 26.2 4 30 4 34.7V40h120v-5.3c0-4.7-3.8-8.5-8.5-8.5Z"/>
  <path fill="#82aec0" d="M79.1 53.8H54.3c-1.3 0-2.4-1.1-2.4-2.4S53 49 54.3 49h24.8c1.3 0 2.4 1.1 2.4 2.4 0 1.3-1.1 2.4-2.4 2.4ZM88 65.5H54.4c-1.3 0-2.4-1.1-2.4-2.4s1.1-2.4 2.4-2.4H88c1.3 0 2.4 1.1 2.4 2.4 0 1.3-1.1 2.4-2.4 2.4ZM75.3 77.3H54.4c-1.3 0-2.4-1.1-2.4-2.4s1.1-2.4 2.4-2.4h20.9c1.3 0 2.4 1.1 2.4 2.4 0 1.3-1.1 2.4-2.4 2.4Zm-5.7 11.8H54.4c-1.3 0-2.4-1.1-2.4-2.4s1.1-2.4 2.4-2.4h15.2c1.3 0 2.4 1.1 2.4 2.4s-1.1 2.4-2.4 2.4Z"/>
  <path fill="#94d1e0" d="M124 53.8h-.5c-7.8 0-14.2 6.3-14.2 14.2s6.3 14.2 14.2 14.2h.5V53.9Z"/>
  <path fill="#e00000" d="M103.8 16.7 63 57.7l-40.9-41-6.2 6.3 40.8 41-40.8 40.9 6.2 6.3 40.9-41 40.8 41 6.2-6.3L69.2 64 110 23l-6.2-6.3z"/>
</svg>
